# xmcd
#
# Track frame offsets: 
#        150
#        16277
#        37450
#        56160
#        69627
#        85235
#        100847
#        120607
#        132737
#        151570
#
# Disc length: 2245 seconds
#
# Revision: 5
# Processed by: cddbd v1.5.2PL0 Copyright (c) Steve Scherf et al.
# Submitted via: ExactAudioCopy v0.99pb5
#
DISCID=8908c30a
DTITLE=басикгс папайымстамтимоу (BY ALANTALON) - ока апо веяи йалема
DYEAR=1988
DGENRE=Rock
TTITLE0=ока апо веяи йалема
TTITLE1=лпоул
TTITLE2=йамтикай
TTITLE3=ема лпкоуф
TTITLE4=акийг
TTITLE5=йомтяок
TTITLE6=гкейтяийо пяобато
TTITLE7=пяытахкгтгс
TTITLE8=цемехкиа '86
TTITLE9=омеияеуолаи (L.A.)
EXTD=
EXTT0=
EXTT1=
EXTT2=
EXTT3=
EXTT4=
EXTT5=
EXTT6=
EXTT7=
EXTT8=
EXTT9=
PLAYORDER=
